<svg width="54" height="64" viewBox="0 0 54 64" fill="none" xmlns="http://www.w3.org/2000/svg">
<path d="M25.1289 10.4062H31.2812V27.9668C31.2812 29.5957 30.9004 31.0488 30.1387 32.3262C29.3887 33.6035 28.334 34.5938 26.9746 35.2969C25.627 36 24.1211 36.3516 22.457 36.3516C19.668 36.3516 17.5 35.6484 15.9531 34.2422C14.4062 32.8359 13.6328 30.8438 13.6328 28.2656H19.8203C19.8203 29.4375 20.0195 30.2871 20.418 30.8145C20.8281 31.3418 21.5078 31.6055 22.457 31.6055C23.3125 31.6055 23.9688 31.2891 24.4258 30.6562C24.8945 30.0117 25.1289 29.1152 25.1289 27.9668V10.4062Z" fill="#FFFDFD"/>
<path d="M41.3535 31.2539H52.0938V36H35.1836V10.4062H41.3535V31.2539Z" fill="#FFFDFD"/>
<path d="M35.5 54.0636C20.8119 54.0636 5.5025 38.9682 5.5025 25.4273C5.5025 21.2955 6.87813 16.3955 8.875 13L5.5025 8C2.04125 13.0318 0 19.0045 0 25.4273C0 43.5091 15.8862 58.1545 35.5 58.1545V63.5L53.25 54.0636L35.5 47V54.0636Z" fill="white"/>
<path d="M29 7C29 4.79086 31.0147 3 33.5 3C35.9853 3 38 4.79086 38 7" stroke="white" stroke-width="5"/>
</svg>
